<svg width="30" height="30" viewBox="0 0 30 30" fill="none" xmlns="http://www.w3.org/2000/svg">
<path d="M16.6675 20.0688L15.595 21.5537C16.6125 22.4613 17.8775 22.915 19.39 22.915C20.545 22.8875 21.425 22.5896 22.03 22.0213C22.6442 21.4438 22.9513 20.7563 22.9513 19.9587C22.9513 19.1796 22.7358 18.5379 22.305 18.0338C21.8742 17.5296 21.15 17.1262 20.1325 16.8237C19.2908 16.5679 18.695 16.3342 18.345 16.1225C17.9967 15.9025 17.8225 15.6367 17.8225 15.325C17.8225 15.0417 17.9646 14.8125 18.2487 14.6375C18.5337 14.4625 18.9142 14.3754 19.39 14.3763C19.7392 14.3763 20.1333 14.445 20.5725 14.5825C21.0125 14.7017 21.4021 14.8942 21.7412 15.16L22.7038 13.6613C21.8612 12.9829 20.7429 12.6437 19.3488 12.6437C18.3504 12.6437 17.53 12.9004 16.8875 13.4137C16.2275 13.9262 15.8975 14.5633 15.8975 15.325C15.9067 16.1317 16.1725 16.7596 16.695 17.2087C17.2267 17.6588 17.9829 18.0254 18.9637 18.3088C19.7804 18.5646 20.335 18.8212 20.6275 19.0787C20.7627 19.1939 20.8709 19.3373 20.9446 19.4989C21.0182 19.6604 21.0555 19.8362 21.0538 20.0138C21.0606 20.1763 21.025 20.3379 20.9505 20.4825C20.876 20.6272 20.7651 20.7499 20.6287 20.8387C20.3346 21.0404 19.9125 21.1413 19.3625 21.1413C18.465 21.1496 17.5667 20.7921 16.6675 20.0688ZM9.755 20.8663C9.4535 20.6756 9.19197 20.4281 8.985 20.1375L7.6925 21.1963C8.07833 21.8463 8.555 22.3 9.1225 22.5575C9.65417 22.795 10.2637 22.9142 10.9512 22.915C11.3262 22.915 11.7158 22.8554 12.12 22.7362C12.5242 22.6171 12.8954 22.4154 13.2337 22.1313C13.8296 21.6546 14.1412 20.8754 14.1687 19.7938V12.8088H12.3125V19.4362C12.3125 20.0696 12.1708 20.5142 11.8875 20.77C11.6025 21.0175 11.2446 21.1413 10.8138 21.1413C10.4012 21.1413 10.0483 21.0496 9.755 20.8663ZM3.75 7.5C3.75 6.50544 4.14509 5.55161 4.84835 4.84835C5.55161 4.14509 6.50544 3.75 7.5 3.75H22.5C23.4946 3.75 24.4484 4.14509 25.1517 4.84835C25.8549 5.55161 26.25 6.50544 26.25 7.5V22.5C26.25 23.4946 25.8549 24.4484 25.1517 25.1517C24.4484 25.8549 23.4946 26.25 22.5 26.25H7.5C6.50544 26.25 5.55161 25.8549 4.84835 25.1517C4.14509 24.4484 3.75 23.4946 3.75 22.5V7.5ZM7.5 6.25C7.16848 6.25 6.85054 6.3817 6.61612 6.61612C6.3817 6.85054 6.25 7.16848 6.25 7.5V22.5C6.25 22.8315 6.3817 23.1495 6.61612 23.3839C6.85054 23.6183 7.16848 23.75 7.5 23.75H22.5C22.8315 23.75 23.1495 23.6183 23.3839 23.3839C23.6183 23.1495 23.75 22.8315 23.75 22.5V7.5C23.75 7.16848 23.6183 6.85054 23.3839 6.61612C23.1495 6.3817 22.8315 6.25 22.5 6.25H7.5Z" fill="#FFBF00"/>
</svg>
