<svg width="30" height="30" viewBox="0 0 30 30" fill="none" xmlns="http://www.w3.org/2000/svg">
<rect width="30" height="30" fill="white"/>
<path d="M1.77393 0L4.18143 27L14.9852 30L25.8171 26.9963L28.2283 0H1.77393ZM23.7527 25.2788L15.0452 27.6919V27.705L15.0227 27.6975L15.0002 27.705V27.6919L6.29268 25.2788L4.23393 2.20875H25.8114L23.7527 25.2788ZM19.0652 15.5325L18.6827 19.8263L14.9852 20.8237L11.2971 19.83L11.0608 17.1863H7.73643L8.19955 22.3875L14.9983 24.2681L21.7764 22.3875L22.6858 12.2213H10.6164L10.3146 8.82938H22.9858L23.2821 5.51813H6.69393L7.5883 15.5325H19.0652Z" fill="#E44D26"/>
</svg>
