<svg width="32" height="29" viewBox="0 0 32 29" fill="none" xmlns="http://www.w3.org/2000/svg">
<path d="M10.115 29V0.636363H20.7513C22.9303 0.636363 24.7584 1.01491 26.2357 1.77202C27.7222 2.52912 28.844 3.59091 29.6011 4.95738C30.3675 6.31463 30.7506 7.89808 30.7506 9.70774C30.7506 11.5266 30.3628 13.1055 29.5873 14.4442C28.8209 15.7738 27.6899 16.8033 26.1942 17.5327C24.6984 18.2528 22.8611 18.6129 20.6821 18.6129H13.1064V14.3473H19.9896C21.2638 14.3473 22.3071 14.1719 23.1196 13.821C23.9321 13.4609 24.5322 12.9393 24.92 12.256C25.317 11.5636 25.5155 10.7141 25.5155 9.70774C25.5155 8.70135 25.317 7.84268 24.92 7.13175C24.523 6.41158 23.9182 5.86683 23.1057 5.49751C22.2932 5.11896 21.2453 4.92969 19.9619 4.92969H15.2531V29H10.115ZM24.7677 16.1477L31.7893 29H26.0557L19.1586 16.1477H24.7677Z" fill="#8000FF"/>
<path d="M5.82915 29H0.344771L10.3302 0.636363H16.6733L26.6725 29H21.1882L13.6125 6.45312H13.3909L5.82915 29ZM6.00919 17.8789H20.9666V22.006H6.00919V17.8789Z" fill="black"/>
</svg>
